<svg width="85" height="85" viewBox="0 0 85 85" fill="none" xmlns="http://www.w3.org/2000/svg">
<path d="M0.278145 0.582703L0.278142 17.7823L45.6974 63.2015C48.0227 65.5268 48.0226 69.2968 45.6974 71.6221C43.3721 73.9474 39.602 73.9474 37.2768 71.6221L0.278139 34.6235L0.278137 42.7281C0.278133 66.0043 19.1473 84.8735 42.4235 84.8735C57.6587 84.8735 71.0058 76.7896 78.4094 64.6771L39.4378 25.7055C37.1125 23.3802 37.1125 19.6102 39.4378 17.2849C41.7631 14.9596 45.5331 14.9596 47.8584 17.2849L83.3609 52.7874C84.1503 49.5639 84.5689 46.1949 84.5689 42.7281C84.5689 19.4518 65.6998 0.582713 42.4235 0.58271L0.278145 0.582703Z" fill="white"/>
</svg>
